# xmcd CD database file
#
# Track frame offsets:
#	150
#	11700
#	23385
#	37555
#	51920
#	64157
#	83777
#	94825
#	106252
#	118405
#	133445
#	153907
#	174392
#	190577
#	209715
#	228695
#	248175
#	267147
#	284377
#	301360
#
# Disc length: 4173 seconds
#
# Revision: 1
# Processed by: cddbd v1.5.2PL0 Copyright (c) Steve Scherf et al.
# Submitted via: CDex 1.51
#
DISCID=14104b14
DTITLE=Edmond Hall - Vol. 199 - Edmond Hall 1941-1957
DYEAR=1959
DGENRE=Jazz
TTITLE0=Indiana
TTITLE1=Collier's Clambake
TTITLE2=Memphis Blues
TTITLE3=After You've Gone
TTITLE4=As Long as I Love
TTITLE5=High Society
TTITLE6=Caravan
TTITLE7=The Sheik of Araby
TTITLE8=It's Only a Shanty in Old Shanty Town
TTITLE9=Sleepy Time Gal
TTITLE10=Walkin' the Dog
TTITLE11=Tishomingo Blues
TTITLE12=Everybody Loves my Baby
TTITLE13=Who's Sorry Now
TTITLE14=Edmon Hall Blues
TTITLE15=Jammin' in Four
TTITLE16=Profoundly Blue No. 2
TTITLE17=Steamin' and Beamin'
TTITLE18=Smooth Sailing
TTITLE19=Dardanella
EXTD=YEAR: 1959
EXTT0=
EXTT1=
EXTT2=
EXTT3=
EXTT4=
EXTT5=
EXTT6=
EXTT7=
EXTT8=
EXTT9=
EXTT10=
EXTT11=
EXTT12=
EXTT13=
EXTT14=
EXTT15=
EXTT16=
EXTT17=
EXTT18=
EXTT19=
PLAYORDER=
